<svg width="80" height="80" viewBox="0 0 80 80" fill="none" xmlns="http://www.w3.org/2000/svg">
<rect x="0.5" y="0.5" width="79" height="79" rx="11.5" fill="white" stroke="#CCCCCC" stroke-dasharray="2 2"/>
<path d="M41.75 24.25H40.25V27.25H37.25V28.75H40.25V31.75H41.75V28.75H44.75V27.25H41.75V24.25ZM41 20.5C36.86 20.5 33.5 23.86 33.5 28C33.5 32.14 36.86 35.5 41 35.5C45.14 35.5 48.5 32.14 48.5 28C48.5 23.86 45.14 20.5 41 20.5ZM41 34C37.6925 34 35 31.3075 35 28C35 24.6925 37.6925 22 41 22C44.3075 22 47 24.6925 47 28C47 31.3075 44.3075 34 41 34Z" fill="#454545"/>
<path d="M16.3544 44.478V57.064H17.5024V44.478H16.3544ZM10.8804 45.444C9.01838 45.444 7.68838 47.152 7.68838 49.826C7.68838 52.5 9.01838 54.208 10.8804 54.208C12.7424 54.208 14.0724 52.5 14.0724 49.826C14.0724 47.152 12.7424 45.444 10.8804 45.444ZM10.8804 46.48C12.0984 46.48 12.9664 47.796 12.9664 49.826C12.9664 51.87 12.0984 53.186 10.8804 53.186C9.64838 53.186 8.78038 51.87 8.78038 49.826C8.78038 47.796 9.64838 46.48 10.8804 46.48ZM20.8333 45.71V53.872H26.6013V45.71H20.8333ZM25.4813 46.634V52.962H21.9533V46.634H25.4813ZM29.2333 44.478V57.064H30.3813V44.478H29.2333ZM37.4642 46.718H40.4182V45.766H33.4042V46.718H36.3162V48.314C36.3162 50.484 34.7902 52.85 32.9842 53.704L33.6562 54.628C35.0842 53.9 36.3162 52.318 36.8902 50.484C37.4922 52.206 38.7242 53.648 40.1802 54.32L40.8242 53.396C38.9762 52.612 37.4642 50.442 37.4642 48.314V46.718ZM42.1122 44.492V57.036H43.2602V44.492H42.1122ZM50.6338 51.114C52.5798 50.82 54.3858 49.854 55.1838 48.496C55.9818 49.854 57.7738 50.82 59.7198 51.114L60.1258 50.19C57.8858 49.882 55.7578 48.496 55.7578 46.956H59.7618V46.032H55.7578V44.478H54.6098V46.032H50.6058V46.956H54.5958C54.5958 48.51 52.4818 49.882 50.2138 50.19L50.6338 51.114ZM60.8678 52.066H49.5138V53.004H54.6098V57.05H55.7578V53.004H60.8678V52.066ZM63.0507 45.822V46.774H67.6567C67.3907 49.742 65.6687 52.15 62.4627 53.76L63.0927 54.656C67.1527 52.626 68.7907 49.392 68.7907 45.822H63.0507ZM74.0547 49.574H72.0387V44.478H70.8907V57.036H72.0387V50.526H74.0547V49.574Z" fill="#656565"/>
</svg>
