<svg width="18" height="18" viewBox="0 0 18 18" fill="none" xmlns="http://www.w3.org/2000/svg">
<path d="M13.5 6L5.25 6L4.5 6C3.675 6 3 6.675 3 7.5V15C3 15.825 3.675 16.5 4.5 16.5H13.5C14.325 16.5 15 15.825 15 15V7.5C15 6.675 14.325 6 13.5 6ZM9 12.75C8.175 12.75 7.5 12.075 7.5 11.25C7.5 10.425 8.175 9.75 9 9.75C9.825 9.75 10.5 10.425 10.5 11.25C10.5 12.075 9.825 12.75 9 12.75Z" fill="#333333"/>
<path d="M17.5 6V4.5C17.5 2.43 15.82 0.75 13.75 0.75C11.68 0.75 10 2.43 10 4.5V6H11.425H16.075H17.5ZM16.075 6H11.425V4.5C11.425 3.2175 12.4675 2.175 13.75 2.175C15.0325 2.175 16.075 3.2175 16.075 4.5V6Z" fill="#333333"/>
</svg>
