<svg width="120" height="44" viewBox="0 0 120 44" fill="none" xmlns="http://www.w3.org/2000/svg">
<rect width="120" height="44" rx="22" fill="white"/>
<path d="M27.7198 21.112L27.1678 23.824H30.1918V26.248H26.7118L25.7998 31H23.2318L24.1438 26.248H21.8638L20.9758 31H18.4558L19.3198 26.248H16.5358V23.824H19.7758L20.3278 21.112H17.3758V18.664H20.7598L21.6718 13.888H24.2398L23.3278 18.664H25.6558L26.5678 13.888H29.0878L28.1758 18.664H30.9838V21.112H27.7198ZM22.3198 23.824H24.6238L25.1758 21.112H22.8718L22.3198 23.824ZM58.1098 21.352C53.1178 20.512 50.3818 17.08 50.3818 13.84V12.256H46.9978V13.84C46.9978 17.008 44.2378 20.512 39.2698 21.352L40.6138 24.016C44.4538 23.272 47.2618 21.112 48.6778 18.304C50.0938 21.112 52.9258 23.248 56.7658 24.016L58.1098 21.352ZM38.7898 27.808V30.376H58.8058V27.808H38.7898ZM72.4599 28.072V24.4H78.7479V21.904H66.4359V19.6H78.0759V17.152H66.4359V14.992H78.5799V12.472H63.2199V24.4H69.2919V28.072H60.8679V30.64H80.8839V28.072H72.4599ZM87.3621 21.376H94.5381V12.832H84.0981V15.352H91.2981V18.88H84.1221V27.976H86.1141C90.1221 27.976 93.3621 27.832 96.9621 27.208L96.6261 24.64C93.5061 25.168 90.7221 25.336 87.3621 25.36V21.376ZM98.1621 10.936V33.112H101.33V10.936H98.1621Z" fill="#23C38A"/>
</svg>
